# AST/ASF file generated using VICON BodyLanguage
# -----------------------------------------------
:version 1.10
:name VICON
:units
  mass 1.0
  length 0.1
  angle deg
:documentation
   .ast/.asf automatically generated from VICON data using
   VICON BodyBuilder and BodyLanguage model FULLBODY5.MOD
:root
   order TX TY TZ RZ RY RX
   axis XYZ
   position 0 0 0  
   orientation 0 -0 0 
:bonedata
  begin
     id 1 
     name lhipjoint
     direction 0.961525 -0.229516 0.150972 
     length 0.502153 
     axis 0 -0 0  XYZ
  end
  begin
     id 2 
     name lfemur
     direction 0.173648 -0.984808 0  
     length 1.83052  
     axis 0 -0 10  XYZ
    dof rx ry rz
    limits (-180.0 180.0)
           (-180.0 180.0)
           (-180.0 180.0)
  end
  begin
     id 3 
     name ltibia
     direction 0.173629 -0.984811 0   
     length 1.50296   
     axis 0 -0 10   XYZ
    dof rx ry rz
    limits (-180.0 180.0)
           (-180.0 180.0)
           (-180.0 180.0)
  end
  begin
     id 4 
     name lfoot
     direction 7.59329e-012 -0.227408 0.9738   
     length 0.574743   
     axis -90 -1.73656e-015 10   XYZ
    dof rx ry rz
    limits (-180.0 180.0)
           (-180.0 180.0)
           (-180.0 180.0)
  end
  begin
     id 5 
     name ltoes
     direction 7.79885e-012 -4.41741e-011 1   
     length 0.28489   
     axis -90 -1.73656e-015 10   XYZ
    dof rx ry rz
    limits (-180.0 180.0)
           (-180.0 180.0)
           (-180.0 180.0)
  end
  begin
     id 6 
     name rhipjoint
     direction -0.970498 -0.201437 0.132502   
     length 0.572149  
     axis 0 -0 0  XYZ 
  end
  begin
     id 7 
     name rfemur
     direction -0.173648 -0.984808 0   
     length 1.71866   
     axis 0 -0 -10   XYZ
    dof rx ry rz
    limits (-180.0 180.0)
           (-180.0 180.0)
           (-180.0 180.0)
  end
  begin
     id 8 
     name rtibia
     direction -0.173624 -0.984812 0   
     length 1.42623   
     axis 0 -0 -10   XYZ
    dof rx ry rz
    limits (-180.0 180.0)
           (-180.0 180.0)
           (-180.0 180.0)
 end
 begin
     id 9 
     name rfoot
     direction -7.12931e-012 -0.404275 0.914637   
     length 0.524692  
     axis -90 1.73656e-015 -10   XYZ
    dof rx ry rz
    limits (-180.0 180.0)
           (-180.0 180.0)
           (-180.0 180.0)
  end
  begin
     id 10 
     name rtoes
     direction -7.79289e-012 -4.41454e-011 1   
     length 0.254983   
     axis -90 1.73656e-015 -10   XYZ
    dof rx ry rz
    limits (-180.0 180.0)
           (-180.0 180.0)
           (-180.0 180.0)
  end
  begin
     id 11 
     name lowerback
     direction -0.0214086 0.993738 0.109665   
     length 0.417614   
     axis 0 -0 0   XYZ
    dof rx ry rz
    limits (-180.0 180.0)
           (-180.0 180.0)
           (-180.0 180.0)
  end
  begin
     id 12 
     name upperback
     direction 8.15962e-005 0.99996 0.00893412   
     length 0.419234   
     axis 0 -0 0   XYZ
    dof rx ry rz
    limits (-180.0 180.0)
           (-180.0 180.0)
           (-180.0 180.0)
  end
  begin
     id 13 
     name thorax
     direction 0.00826031 0.999067 -0.0423848   
     length 0.424697   
     axis 0 -0 0   XYZ
    dof rx ry rz
    limits (-180.0 180.0)
           (-180.0 180.0)
           (-180.0 180.0)
  end
  begin
     id 14 
     name lowerneck
     direction -0.0196262 0.994272 -0.105058   
     length 0.355877   
     axis 0 -0 0   XYZ
    dof rx ry rz
    limits (-180.0 180.0)
           (-180.0 180.0)
           (-180.0 180.0)
  end
  begin
     id 15 
     name upperneck
     direction 0.000117372 0.999091 0.0426261   
     length 0.351054   
     axis 0 -0 0   XYZ
    dof rx ry rz
    limits (-180.0 180.0)
           (-180.0 180.0)
           (-180.0 180.0)
  end
  begin
     id 16
     name head
     direction 0.00157618 0.999651 0.0263619  
     length 0.374844  
     axis 0 -0 0   XYZ
    dof rx ry rz
    limits (-180.0 180.0)
           (-180.0 180.0)
           (-180.0 180.0)
  end
  begin
     id 17 
     name lshoulderjoint
     direction 0.981627 -0.190809 0  
     length 0.701763  
     axis 0 -0 -11   XYZ
    dof rx ry rz
    limits (-180.0 180.0)
           (-180.0 180.0)
           (-180.0 180.0)
  end
  begin
     id 18 
     name lhumerus
     direction 0.48481 -0.87462 -1.80676e-026   
     length 0.994704   
     axis -180 5.14477e-009 -151   XYZ
    dof rx ry rz
    limits (-180.0 180.0)
           (-180.0 180.0)
           (-180.0 180.0)
  end
  begin
     id 19
     name lradius
     direction 0.48481 -0.87462 -3.2569e-026   
     length 0.617638   
     axis -180 5.14477e-009 -151   XYZ
    dof rx ry rz
    limits (-180.0 180.0)
           (-180.0 180.0)
           (-180.0 180.0)
  end
  begin
     id 20
     name lwrist
     direction 0.48481 -0.87462 -6.73202e-026   
     length 0.308819   
     axis -180 5.14477e-009 -151   XYZ
    dof rx ry rz
    limits (-180.0 180.0)
           (-180.0 180.0)
           (-180.0 180.0)
  end
  begin
     id 21 
     name lhand
     direction 0.478366 -0.863761 -0.158376   
     length 0.291656   
     axis -180 5.14477e-009 -151   XYZ
    dof rx ry rz
    limits (-180.0 180.0)
           (-180.0 180.0)
           (-180.0 180.0)
  end
  begin
     id 22 
     name rshoulderjoint
     direction -0.981627 -0.190809 0   
     length 0.66654  
     axis 0 -0 11   XYZ 
    dof rx ry rz
    limits (-180.0 180.0)
           (-180.0 180.0)
           (-180.0 180.0)
  end
  begin
     id 23 
     name rhumerus
     direction -0.48481 -0.87462 1.77576e-026  
     length 1.15089   
     axis 180 5.14477e-009 151   XYZ
    dof rx ry rz
    limits (-180.0 180.0)
           (-180.0 180.0)
           (-180.0 180.0)
  end
  begin
     id 24 
     name rradius
     direction -0.48481 -0.87462 3.79421e-026   
     length 0.613887   
     axis 180 5.14477e-009 151   XYZ
    dof rx ry rz
    limits (-180.0 180.0)
           (-180.0 180.0)
           (-180.0 180.0)
  end
  begin
     id 25 
     name rwrist
     direction -0.48481 -0.87462 5.43623e-026   
     length 0.306944   
     axis 180 5.14477e-009 151   XYZ
    dof rx ry rz
    limits (-180.0 180.0)
           (-180.0 180.0)
           (-180.0 180.0)
  end
  begin
     id 26
     name rhand
     direction -0.479273 -0.864638 -0.150661   
     length 0.306429   
     axis 180 5.14477e-009 151   XYZ
    dof rx ry rz
    limits (-180.0 180.0)
           (-180.0 180.0)
           (-180.0 180.0)
  end
:hierarchy
  begin
    root lhipjoint rhipjoint lowerback 
    lhipjoint lfemur
    lfemur ltibia
    ltibia lfoot
    lfoot ltoes
    rhipjoint rfemur
    rfemur rtibia
    rtibia rfoot
    rfoot rtoes
    lowerback upperback
    upperback thorax
    thorax lowerneck lshoulderjoint rshoulderjoint
    lowerneck upperneck
    upperneck head
    lshoulderjoint lhumerus
    lhumerus lradius
    lradius lwrist
    lwrist lhand
    rshoulderjoint rhumerus
    rhumerus rradius
    rradius rwrist
    rwrist rhand
  end

:FULLY-SPECIFIED
:DEGREES
1938
root 8.65403 3.57957 0.142245 -153.419 52.0833 152.985
lowerback -12.727 -1.42863 0.361711
upperback -3.26475 -1.72705 -0.499315
thorax 3.67764 -0.771363 -0.989028
lowerneck 11.9944 1.34901 -4.81622
upperneck -3.37651 1.14468 0.359675
head -3.25973 0.648971 0.898004
rshoulderjoint 1.79758 -4.43379 -33.0955
rhumerus -8.92616 -15.059 -54.7361
rradius 29.7074 1.52667e-013 3.81667e-014
rwrist -5.76591e-013 9.10948 9.66354e-015
rhand 10.4495 -8.05325 30.1194
lshoulderjoint 2.92865 11.2688 25.6708
lhumerus 0.48002 1.26225 52.6832
lradius 27.492 -1.97194e-013 4.51241e-014
lwrist -6.40599e-013 -8.87416 1.73831e-013
lhand 21.6407 8.54804 -16.9843
rfemur -11.7779 7.08364 8.23184
rtibia 5.80451e-014 -1.90833e-014 -1.47101e-014
rfoot -2.50099 16.6721 -5.61753
rtoes -1.66979e-013 3.26007e-014 2.8625e-014
lfemur -25.099 -28.4461 -6.20343
ltibia 19.6118 5.56597e-015 2.75814e-015
lfoot -10.879 -2.60301 13.8188
ltoes -1.70955e-013 5.1684e-015 -6.36111e-015
1939
root 8.65237 3.5797 0.147688 -154.308 50.9723 153.637
lowerback -12.5289 -1.36604 0.57627
upperback -3.29727 -1.67163 -0.461642
thorax 3.53114 -0.743298 -1.0564
lowerneck 12.0253 1.44556 -4.74993
upperneck -3.33864 1.27584 0.228217
head -3.25366 0.719135 0.833621
rshoulderjoint 1.76852 -4.35673 -33.1193
rhumerus -8.99494 -15.7788 -54.5232
rradius 29.6191 -2.29e-013 -7.95139e-015
rwrist 4.28663e-013 9.31208 1.45439e-013
rhand 10.636 -8.08087 30.2405
lshoulderjoint 2.92908 11.283 25.6555
lhumerus 0.372964 0.593425 52.7363
lradius 27.7184 8.26944e-014 1.88845e-014
lwrist 6.2944e-013 -8.93699 4.5075e-014
lhand 21.5951 8.54591 -17.1616
rfemur -11.7608 6.66469 8.49833
rtibia -1.35174e-014 0 -1.26228e-014
rfoot -2.65574 16.6722 -6.41695
rtoes 3.97569e-015 -1.59028e-015 4.77083e-014
lfemur -25.5222 -27.7672 -6.39885
ltibia 20.4297 3.49861e-014 -2.23633e-015
lfoot -11.3033 -2.38535 13.957
ltoes -2.0276e-014 3.73715e-014 1.11319e-013
1940
root 8.651 3.57993 0.152999 -155.167 49.8786 154.295
lowerback -12.3237 -1.24653 0.79866
upperback -3.32232 -1.53963 -0.449777
thorax 3.38975 -0.677529 -1.14402
lowerneck 12.1208 1.49096 -4.68382
upperneck -3.30408 1.33764 0.121569
head -3.25941 0.754239 0.782035
rshoulderjoint 1.80608 -4.43362 -33.1906
rhumerus -9.09559 -16.3406 -54.3297
rradius 29.5858 1.87653e-013 1.36764e-013
rwrist 3.45059e-013 9.50782 -8.06214e-015
rhand 10.7122 -8.20726 30.4467
lshoulderjoint 2.87829 11.0585 25.688
lhumerus 0.185098 -0.0236289 52.8259
lradius 27.9492 1.59028e-013 -5.42682e-014
lwrist 1.93303e-014 -9.16838 -2.38407e-013
lhand 21.4144 8.77913 -17.4246
rfemur -11.7075 6.25556 8.74338
rtibia -2.38542e-014 0 -3.57812e-015
rfoot -2.81994 16.6749 -7.25104
rtoes 1.35969e-013 -1.53859e-013 -1.59028e-014
lfemur -25.8246 -26.8803 -6.79012
ltibia 21.2739 3.81667e-014 -4.37326e-015
lfoot -11.8846 -2.78393 14.3966
ltoes 1.24439e-013 8.36883e-014 7.63333e-014
1941
root 8.64928 3.58036 0.15849 -155.952 48.7965 154.861
lowerback -12.1254 -1.22315 0.920069
upperback -3.3481 -1.52236 -0.422184
thorax 3.25226 -0.669274 -1.17609
lowerneck 12.0533 1.68401 -3.94145
upperneck -3.12231 1.67013 -0.644306
head -3.17039 0.940599 0.375388
rshoulderjoint 1.72253 -4.24656 -33.1032
rhumerus -9.17232 -16.879 -54.0759
rradius 29.5636 -1.59028e-014 -9.70069e-014
rwrist -2.38761e-013 9.68057 -1.18574e-013
rhand 10.7642 -8.3475 30.7096
lshoulderjoint 2.92868 11.1498 25.8188
lhumerus 0.0962632 -0.645713 52.9322
lradius 28.1435 -4.32555e-013 -2.94201e-014
lwrist 1.12757e-014 -9.15907 3.67266e-013
lhand 21.1961 8.75158 -17.6674
rfemur -11.6957 5.87677 8.9919
rtibia 1.98785e-014 -6.36111e-015 -4.27387e-015
rfoot -2.9504 16.7395 -8.06673
rtoes -5.00937e-014 -1.24439e-013 2.22639e-014
lfemur -26.1314 -25.9987 -7.17293
ltibia 22.1172 3.33958e-014 1.2921e-014
lfoot -12.4773 -2.62899 15.0553
ltoes -6.71892e-014 3.02153e-014 8.26944e-014
